<svg xmlns="http://www.w3.org/2000/svg" width="1600" height="900" viewBox="0 0 1600 900" role="img"><defs><linearGradient id="bg" x1="0" y1="0" x2="1" y2="1"><stop stop-color="#111827"/><stop offset="1" stop-color="#3b2f1b"/></linearGradient><filter id="shadow"><feDropShadow dx="0" dy="18" stdDeviation="20" flood-opacity=".35"/></filter></defs><rect width="1600" height="900" fill="url(#bg)"/><text x="90" y="120" fill="#fff7ed" font-family="Arial,sans-serif" font-size="54" font-weight="700">Automatic cat litter boxes</text><text x="90" y="168" fill="#fed7aa" font-family="Arial,sans-serif" font-size="26">Premium, open-top or tech-heavy: the buyer needs reassurance.</text><g filter="url(#shadow)"><rect x="120" y="260" width="380" height="420" rx="34" fill="#f8fafc"/><text x="165" y="335" fill="#111827" font-family="Arial" font-size="32" font-weight="700">Premium closed</text><rect x="200" y="425" width="220" height="170" rx="50" fill="#e5e7eb" stroke="#64748b" stroke-width="10"/><circle cx="310" cy="500" r="55" fill="#111827"/><rect x="225" y="620" width="170" height="24" rx="12" fill="#cbd5e1"/></g><g filter="url(#shadow)"><rect x="610" y="260" width="380" height="420" rx="34" fill="#f8fafc"/><text x="655" y="335" fill="#111827" font-family="Arial" font-size="32" font-weight="700">Open-top value</text><path d="M705 455 Q800 385 895 455 L870 610 H730 Z" fill="#e5e7eb" stroke="#64748b" stroke-width="10"/><path d="M745 485 Q800 445 855 485" fill="none" stroke="#f59e0b" stroke-width="22" stroke-linecap="round"/></g><g filter="url(#shadow)"><rect x="1100" y="260" width="380" height="420" rx="34" fill="#f8fafc"/><text x="1145" y="335" fill="#111827" font-family="Arial" font-size="32" font-weight="700">Tech features</text><rect x="1190" y="420" width="200" height="185" rx="42" fill="#e5e7eb" stroke="#64748b" stroke-width="10"/><circle cx="1290" cy="505" r="40" fill="#0f172a" stroke="#38bdf8" stroke-width="5"/><circle cx="1278" cy="500" r="6" fill="#fff"/><circle cx="1302" cy="500" r="6" fill="#fff"/></g><text x="90" y="805" fill="#ffedd5" font-family="Arial" font-size="36" font-weight="700">Winning content angle: odors, leaks, cleaning, cat acceptance, real-life tradeoffs.</text></svg>