<svg xmlns="http://www.w3.org/2000/svg" width="1600" height="900" viewBox="0 0 1600 900" role="img"><defs><linearGradient id="bg" x1="0" y1="0" x2="1" y2="1"><stop offset="0" stop-color="#07111f"/><stop offset="1" stop-color="#0f2d4a"/></linearGradient><filter id="s"><feDropShadow dx="0" dy="18" stdDeviation="20" flood-opacity=".35"/></filter></defs><rect width="1600" height="900" fill="url(#bg)"/><text x="90" y="120" fill="#eaf6ff" font-family="Arial,sans-serif" font-size="54" font-weight="700">Governed AI Agents</text><text x="90" y="168" fill="#9fc7df" font-family="Arial,sans-serif" font-size="26">From chat prompts to controlled workflow execution</text><g filter="url(#s)"><rect x="120" y="260" width="410" height="370" rx="28" fill="#0b1220" stroke="#274866"/><text x="170" y="335" fill="#94a3b8" font-family="Arial" font-size="28">Chatbot</text><rect x="170" y="380" width="280" height="18" rx="9" fill="#334155"/><rect x="170" y="430" width="230" height="18" rx="9" fill="#334155"/><rect x="170" y="480" width="310" height="18" rx="9" fill="#334155"/><circle cx="325" cy="565" r="38" fill="#1e293b" stroke="#60a5fa" stroke-width="4"/></g><g stroke="#60a5fa" stroke-width="5" fill="none" opacity=".9"><path d="M570 445 C700 445 780 445 900 445"/><path d="M875 425 L905 445 L875 465"/></g><g filter="url(#s)"><rect x="930" y="220" width="520" height="450" rx="34" fill="#f8fbff"/><text x="990" y="300" fill="#0f172a" font-family="Arial" font-size="34" font-weight="700">Agent execution layer</text><g fill="#e2e8f0"><rect x="990" y="350" width="160" height="90" rx="16"/><rect x="1220" y="350" width="160" height="90" rx="16"/><rect x="990" y="500" width="160" height="90" rx="16"/><rect x="1220" y="500" width="160" height="90" rx="16"/></g><g fill="#1d4ed8" font-family="Arial" font-size="22" font-weight="700"><text x="1024" y="404">CRM</text><text x="1243" y="404">Policy</text><text x="1024" y="554">Tickets</text><text x="1238" y="554">Risk</text></g><circle cx="1190" cy="465" r="54" fill="#0f172a" stroke="#38bdf8" stroke-width="5"/><circle cx="1172" cy="458" r="8" fill="#fff"/><circle cx="1208" cy="458" r="8" fill="#fff"/></g><text x="90" y="790" fill="#dbeafe" font-family="Arial" font-size="34" font-weight="700">Context + permissions + governance = real enterprise leverage</text></svg>