<svg xmlns="http://www.w3.org/2000/svg" width="1600" height="900" viewBox="0 0 1600 900" role="img"><defs><linearGradient id="bg" x1="0" y1="0" x2="1" y2="1"><stop stop-color="#07111f"/><stop offset="1" stop-color="#172554"/></linearGradient><filter id="shadow"><feDropShadow dx="0" dy="20" stdDeviation="22" flood-opacity=".35"/></filter><linearGradient id="ring" x1="0" y1="0" x2="1" y2="1"><stop stop-color="#e5e7eb"/><stop offset=".55" stop-color="#64748b"/><stop offset="1" stop-color="#f8fafc"/></linearGradient></defs><rect width="1600" height="900" fill="url(#bg)"/><text x="90" y="115" fill="#f8fafc" font-family="Arial,sans-serif" font-size="54" font-weight="700">Smart rings without subscription?</text><text x="90" y="164" fill="#bfdbfe" font-family="Arial,sans-serif" font-size="26">The real comparison is total cost, ecosystem and trust.</text><g filter="url(#shadow)"><rect x="120" y="255" width="420" height="430" rx="34" fill="#f8fafc"/><text x="165" y="330" fill="#0f172a" font-family="Arial" font-size="34" font-weight="700">Premium ring</text><circle cx="330" cy="470" r="105" fill="none" stroke="url(#ring)" stroke-width="48"/><rect x="210" y="610" width="240" height="22" rx="11" fill="#e2e8f0"/><text x="235" y="655" fill="#475569" font-family="Arial" font-size="24">Membership model</text></g><g filter="url(#shadow)"><rect x="620" y="255" width="420" height="430" rx="34" fill="#0f172a" stroke="#38bdf8"/><text x="665" y="330" fill="#f8fafc" font-family="Arial" font-size="34" font-weight="700">Alternatives</text><circle cx="830" cy="470" r="100" fill="none" stroke="#38bdf8" stroke-width="40"/><circle cx="830" cy="470" r="44" fill="#0f172a" stroke="#93c5fd" stroke-width="4"/><rect x="710" y="610" width="240" height="22" rx="11" fill="#1e3a8a"/><text x="708" y="655" fill="#bfdbfe" font-family="Arial" font-size="24">One-time cost focus</text></g><g filter="url(#shadow)"><rect x="1120" y="255" width="360" height="430" rx="34" fill="#f8fafc"/><text x="1170" y="330" fill="#0f172a" font-family="Arial" font-size="34" font-weight="700">Decision</text><g fill="none" stroke="#2563eb" stroke-width="10"><path d="M1210 430 l55 55 l125 -130"/><path d="M1210 550 h190"/><path d="M1210 610 h150"/></g><text x="1168" y="720" fill="#0f172a" font-family="Arial" font-size="25" font-weight="700">Sleep, phone, price, support</text></g><text x="90" y="810" fill="#e0f2fe" font-family="Arial" font-size="36" font-weight="700">Best angle: compare by buyer profile, not just features.</text></svg>